<svg xmlns="http://www.w3.org/2000/svg" width="17.094" height="13.47" viewBox="0 0 17.094 13.47">
  <defs>
    <style>
      .cls-1 {
        fill: #fff;
        fill-rule: evenodd;
        opacity: 0.75;
      }
    </style>
  </defs>
  <path id="bird" class="cls-1" d="M361.5,2556.3a7.481,7.481,0,0,1-2.015.54,3.464,3.464,0,0,0,1.543-1.89,7.1,7.1,0,0,1-2.229.83,3.566,3.566,0,0,0-2.561-1.08,3.463,3.463,0,0,0-3.509,3.41,3.247,3.247,0,0,0,.091.77,10.05,10.05,0,0,1-7.233-3.55,3.284,3.284,0,0,0-.476,1.71,3.372,3.372,0,0,0,1.562,2.83,3.537,3.537,0,0,1-1.59-.42v0.04a3.433,3.433,0,0,0,2.815,3.34,3.528,3.528,0,0,1-.925.12,3.585,3.585,0,0,1-.66-0.06,3.491,3.491,0,0,0,3.278,2.36,7.137,7.137,0,0,1-4.358,1.46,5.8,5.8,0,0,1-.837-0.05,10.118,10.118,0,0,0,5.379,1.53,9.763,9.763,0,0,0,9.984-9.69c0-.14,0-0.29-0.009-0.44A7.052,7.052,0,0,0,361.5,2556.3Z" transform="translate(-344.406 -2554.72)"/>
</svg>
