<svg xmlns="http://www.w3.org/2000/svg" width="16.188" height="16.18" viewBox="0 0 16.188 16.18">
  <defs>
    <style>
      .cls-1 {
        fill: #fff;
        fill-rule: evenodd;
        opacity: 0.75;
      }
    </style>
  </defs>
  <path id="icon" class="cls-1" d="M276.471,2552.9h-9.942a3.131,3.131,0,0,0-3.131,3.13v9.94a3.131,3.131,0,0,0,3.131,3.13h9.942a3.132,3.132,0,0,0,3.131-3.13v-9.94A3.132,3.132,0,0,0,276.471,2552.9Zm0.986,1.81h0.354v2.69l-2.709.01-0.009-2.7h2.364Zm-5.957,3.58a2.71,2.71,0,1,1-2.711,2.71A2.72,2.72,0,0,1,271.5,2558.29Zm6.327,7.48a1.559,1.559,0,0,1-1.553,1.56H266.7a1.559,1.559,0,0,1-1.553-1.56v-6.58h2.25a5.233,5.233,0,0,0-.326,1.81,4.431,4.431,0,0,0,8.862,0,5.21,5.21,0,0,0-.327-1.81h2.223v6.58Z" transform="translate(-263.406 -2552.91)"/>
</svg>
